# xmcd
#
# Track frame offsets: 
#        150
#        19280
#        38672
#        57562
#        69612
#        86819
#        100174
#        121906
#        142314
#        161654
#        179414
#
# Disc length: 2677 seconds
#
# Revision: 3
# Processed by: cddbd v1.5.2PL0 Copyright (c) Steve Scherf et al.
# Submitted via: ExactAudioCopyFreeDBPlugin 1.0
#
DISCID=a00a730b
DTITLE=谭咏麟 - 暴风女神 Lorelei
DYEAR=1985
DGENRE=Pop
TTITLE0=暴風女神 Lorelei (電影「龍兄虎弟」主題曲)
TTITLE1=世外情
TTITLE2=問
TTITLE3=楚河漢界 (電影「楚河漢界」主題曲)
TTITLE4=你要等我
TTITLE5=命途戰士
TTITLE6=編織
TTITLE7=午夜騎士
TTITLE8=吻別
TTITLE9=冬之寒號
TTITLE10=朋友 (電影「龍兄虎弟」插曲)
EXTD=
EXTT0=
EXTT1=
EXTT2=
EXTT3=
EXTT4=
EXTT5=
EXTT6=
EXTT7=
EXTT8=
EXTT9=
EXTT10=
PLAYORDER=
